<svg xmlns="http://www.w3.org/2000/svg" style="display:none">
  <!-- Automation / Gear -->
  <symbol id="icon-gear" viewBox="0 0 24 24">
    <path d="M12 15.5A3.5 3.5 0 0 1 8.5 12 3.5 3.5 0 0 1 12 8.5a3.5 3.5 0 0 1 3.5 3.5 3.5 3.5 0 0 1-3.5 3.5m7.43-2.53c.04-.32.07-.64.07-.97s-.03-.66-.07-1l2.11-1.63c.19-.15.24-.42.12-.64l-2-3.46c-.12-.22-.39-.3-.61-.22l-2.49 1c-.52-.4-1.08-.73-1.69-.98l-.38-2.65A.49.49 0 0 0 14 2h-4c-.25 0-.46.18-.49.42l-.38 2.65c-.61.25-1.17.59-1.69.98l-2.49-1c-.23-.09-.49 0-.61.22l-2 3.46c-.13.22-.07.49.12.64L4.57 11c-.04.34-.07.67-.07 1s.03.65.07.97l-2.11 1.66c-.19.15-.25.42-.12.64l2 3.46c.12.22.39.3.61.22l2.49-1.01c.52.4 1.08.73 1.69.98l.38 2.65c.03.24.24.42.49.42h4c.25 0 .46-.18.49-.42l.38-2.65c.61-.25 1.17-.58 1.69-.98l2.49 1.01c.22.08.49 0 .61-.22l2-3.46c.12-.22.07-.49-.12-.64l-2.11-1.66z"/>
  </symbol>

  <!-- Process / Flow -->
  <symbol id="icon-flow" viewBox="0 0 24 24">
    <path d="M12 2C6.48 2 2 6.48 2 12s4.48 10 10 10 10-4.48 10-10S17.52 2 12 2zm-2 15l-5-5 1.41-1.41L10 14.17l7.59-7.59L19 8l-9 9z"/>
  </symbol>

  <!-- Code -->
  <symbol id="icon-code" viewBox="0 0 24 24">
    <path d="M9.4 16.6L4.8 12l4.6-4.6L8 6l-6 6 6 6 1.4-1.4zm5.2 0l4.6-4.6-4.6-4.6L16 6l6 6-6 6-1.4-1.4z"/>
  </symbol>

  <!-- Chat / Consult -->
  <symbol id="icon-consult" viewBox="0 0 24 24">
    <path d="M20 2H4c-1.1 0-2 .9-2 2v18l4-4h14c1.1 0 2-.9 2-2V4c0-1.1-.9-2-2-2zm0 14H6l-2 2V4h16v12z"/>
  </symbol>

  <!-- Chart / Growth -->
  <symbol id="icon-chart" viewBox="0 0 24 24">
    <path d="M3.5 18.49l6-6.01 4 4L22 6.92l-1.41-1.41-7.09 7.97-4-4L2 16.99l1.5 1.5z"/>
  </symbol>

  <!-- Checklist -->
  <symbol id="icon-checklist" viewBox="0 0 24 24">
    <path d="M3 5h2V3H3v2zm0 8h2v-2H3v2zm4 8h2v-2H7v2zM3 9h2V7H3v2zm10-6h-2v2h2V3zm6 0v2h2V3h-2zM5 21v-2H3v2h2zm-2-4h2v-2H3v2zM9 3H7v2h2V3zm2 18h2v-2h-2v2zm8-8h2v-2h-2v2zm0 8v-2h-2v2h2zm0-4h2v-2h-2v2zm0-8h2V7h-2v2zm-4 8h-2v2h2v-2zm0-8h2V7h-2v2z"/>
  </symbol>

  <!-- Clock / Time -->
  <symbol id="icon-clock" viewBox="0 0 24 24">
    <path d="M12 2C6.5 2 2 6.5 2 12s4.5 10 10 10 10-4.5 10-10S17.5 2 12 2zm0 18c-4.41 0-8-3.59-8-8s3.59-8 8-8 8 3.59 8 8-3.59 8-8 8zm.5-13H11v6l5.2 3.2.8-1.3-4.5-2.7V7z"/>
  </symbol>

  <!-- Money / Pound -->
  <symbol id="icon-pound" viewBox="0 0 24 24">
    <path d="M14 21c1.93 0 3.62-1.17 4-3l-1.75-.88C16 18.21 15.33 19 14 19H9.1c.83-1 1.4-2.35 1.4-4v-1h4v-2h-4V9c0-1.65 1.35-3 3-3 .93 0 1.76.43 2.31 1.1l1.44-1.44A4.97 4.97 0 0 0 13.5 4C10.46 4 8 6.46 8 9.5V12H6v2h2v1c0 1.7-.84 3.17-2 4v2h8z"/>
  </symbol>

  <!-- Building / Industry -->
  <symbol id="icon-building" viewBox="0 0 24 24">
    <path d="M12 7V3H2v18h20V7H12zM6 19H4v-2h2v2zm0-4H4v-2h2v2zm0-4H4V9h2v2zm0-4H4V5h2v2zm4 12H8v-2h2v2zm0-4H8v-2h2v2zm0-4H8V9h2v2zm0-4H8V5h2v2zm10 12h-8v-2h2v-2h-2v-2h2v-2h-2V9h8v10zm-2-8h-2v2h2v-2zm0 4h-2v2h2v-2z"/>
  </symbol>

  <!-- Shopping / Retail -->
  <symbol id="icon-retail" viewBox="0 0 24 24">
    <path d="M7 18c-1.1 0-1.99.9-1.99 2S5.9 22 7 22s2-.9 2-2-.9-2-2-2zM1 2v2h2l3.6 7.59-1.35 2.45c-.16.28-.25.61-.25.96 0 1.1.9 2 2 2h12v-2H7.42c-.14 0-.25-.11-.25-.25l.03-.12.9-1.63h7.45c.75 0 1.41-.41 1.75-1.03l3.58-6.49A1 1 0 0 0 20.01 4H5.21l-.94-2H1zm16 16c-1.1 0-1.99.9-1.99 2s.89 2 1.99 2 2-.9 2-2-.9-2-2-2z"/>
  </symbol>

  <!-- Food / Hospitality -->
  <symbol id="icon-hospitality" viewBox="0 0 24 24">
    <path d="M11 9H9V2H7v7H5V2H3v7c0 2.12 1.66 3.84 3.75 3.97V22h2.5v-9.03C11.34 12.84 13 11.12 13 9V2h-2v7zm5-3v8h2.5v8H21V2c-2.76 0-5 2.24-5 4z"/>
  </symbol>

  <!-- Briefcase / Professional -->
  <symbol id="icon-briefcase" viewBox="0 0 24 24">
    <path d="M20 7h-4V5l-2-2h-4L8 5v2H4c-1.1 0-2 .9-2 2v5c0 .75.4 1.38 1 1.73V19c0 1.11.89 2 2 2h14c1.11 0 2-.89 2-2v-3.28c.59-.35 1-.99 1-1.72V9c0-1.1-.9-2-2-2zM10 5h4v2h-4V5zM4 9h16v5h-5v-3H9v3H4V9zm9 6h-2v-2h2v2zm6 4H5v-3h4v1h6v-1h4v3z"/>
  </symbol>

  <!-- Hard Hat / Construction -->
  <symbol id="icon-construction" viewBox="0 0 24 24">
    <path d="M13 4v2.67l-1 1-1-1V4h2m7 9v2H4v-2c0-1.1.9-2 2-2h1c.13-2.96 2-5.45 4.5-6.6V2h1C12.78 2 13 2.22 13 2.5V4h.5c.55 0 1 .45 1 1v3.17l1.83 1.83H20c1.1 0 2 .9 2 2h-2zm-7 4l-1 4h-1l-1-4h3zm-7 0l-1 4H4l-1-4h3zm14 0l-1 4h-1l-1-4h3z"/>
  </symbol>

  <!-- Health / Cross -->
  <symbol id="icon-health" viewBox="0 0 24 24">
    <path d="M19 3H5c-1.1 0-1.99.9-1.99 2L3 19c0 1.1.9 2 2 2h14c1.1 0 2-.9 2-2V5c0-1.1-.9-2-2-2zm-1 11h-4v4h-4v-4H6v-4h4V6h4v4h4v4z"/>
  </symbol>

  <!-- Factory / Manufacturing -->
  <symbol id="icon-factory" viewBox="0 0 24 24">
    <path d="M22 22H2V10l7-3v3l7-3v3l6-3v15zM12 9.95l-5 2.15V20h4v-4h2v4h4v-8.05l-5 2z"/>
  </symbol>

  <!-- Arrow Right -->
  <symbol id="icon-arrow-right" viewBox="0 0 24 24">
    <path d="M12 4l-1.41 1.41L16.17 11H4v2h12.17l-5.58 5.59L12 20l8-8z"/>
  </symbol>

  <!-- Check -->
  <symbol id="icon-check" viewBox="0 0 24 24">
    <path d="M9 16.17L4.83 12l-1.42 1.41L9 19 21 7l-1.41-1.41z"/>
  </symbol>

  <!-- Phone -->
  <symbol id="icon-phone" viewBox="0 0 24 24">
    <path d="M6.62 10.79c1.44 2.83 3.76 5.14 6.59 6.59l2.2-2.2c.27-.27.67-.36 1.02-.24 1.12.37 2.33.57 3.57.57.55 0 1 .45 1 1V20c0 .55-.45 1-1 1-9.39 0-17-7.61-17-17 0-.55.45-1 1-1h3.5c.55 0 1 .45 1 1 0 1.25.2 2.45.57 3.57.11.35.03.74-.25 1.02l-2.2 2.2z"/>
  </symbol>

  <!-- Email -->
  <symbol id="icon-email" viewBox="0 0 24 24">
    <path d="M20 4H4c-1.1 0-1.99.9-1.99 2L2 18c0 1.1.9 2 2 2h16c1.1 0 2-.9 2-2V6c0-1.1-.9-2-2-2zm0 4l-8 5-8-5V6l8 5 8-5v2z"/>
  </symbol>

  <!-- Map Pin -->
  <symbol id="icon-map" viewBox="0 0 24 24">
    <path d="M12 2C8.13 2 5 5.13 5 9c0 5.25 7 13 7 13s7-7.75 7-13c0-3.87-3.13-7-7-7zm0 9.5c-1.38 0-2.5-1.12-2.5-2.5s1.12-2.5 2.5-2.5 2.5 1.12 2.5 2.5-1.12 2.5-2.5 2.5z"/>
  </symbol>

  <!-- Menu (Hamburger) -->
  <symbol id="icon-menu" viewBox="0 0 24 24">
    <path d="M3 18h18v-2H3v2zm0-5h18v-2H3v2zm0-7v2h18V6H3z"/>
  </symbol>

  <!-- Close -->
  <symbol id="icon-close" viewBox="0 0 24 24">
    <path d="M19 6.41L17.59 5 12 10.59 6.41 5 5 6.41 10.59 12 5 17.59 6.41 19 12 13.41 17.59 19 19 17.59 13.41 12z"/>
  </symbol>

  <!-- Shield / Security -->
  <symbol id="icon-shield" viewBox="0 0 24 24">
    <path d="M12 1L3 5v6c0 5.55 3.84 10.74 9 12 5.16-1.26 9-6.45 9-12V5l-9-4zm-2 16l-4-4 1.41-1.41L10 14.17l6.59-6.59L18 9l-8 8z"/>
  </symbol>

  <!-- Lightning / Speed -->
  <symbol id="icon-lightning" viewBox="0 0 24 24">
    <path d="M7 2v11h3v9l7-12h-4l4-8z"/>
  </symbol>

  <!-- Target -->
  <symbol id="icon-target" viewBox="0 0 24 24">
    <path d="M12 2C6.49 2 2 6.49 2 12s4.49 10 10 10 10-4.49 10-10S17.51 2 12 2zm0 18c-4.41 0-8-3.59-8-8s3.59-8 8-8 8 3.59 8 8-3.59 8-8 8zm0-14c-3.31 0-6 2.69-6 6s2.69 6 6 6 6-2.69 6-6-2.69-6-6-6zm0 10c-2.21 0-4-1.79-4-4s1.79-4 4-4 4 1.79 4 4-1.79 4-4 4zm0-6c-1.1 0-2 .9-2 2s.9 2 2 2 2-.9 2-2-.9-2-2-2z"/>
  </symbol>
</svg>
